<mxfile host="65bd71144e">
    <diagram id="dWO6mV77hRuj-MAhEnZ8" name="第 1 页">
        <mxGraphModel dx="664" dy="427" grid="1" gridSize="10" guides="1" tooltips="1" connect="1" arrows="1" fold="1" page="1" pageScale="1" pageWidth="827" pageHeight="1169" math="0" shadow="0">
            <root>
                <mxCell id="0"/>
                <mxCell id="1" parent="0"/>
                <mxCell id="2" value="" style="rounded=0;whiteSpace=wrap;html=1;" vertex="1" parent="1">
                    <mxGeometry x="170" y="90" width="550" height="360" as="geometry"/>
                </mxCell>
                <mxCell id="4" value="side-bar&lt;br&gt;width: 60px;&lt;br&gt;z-index: 90;&lt;br&gt;top: 54px;" style="rounded=0;whiteSpace=wrap;html=1;fillColor=#6a00ff;fontColor=#ffffff;strokeColor=#3700CC;" vertex="1" parent="1">
                    <mxGeometry x="170" y="140" width="50" height="310" as="geometry"/>
                </mxCell>
                <mxCell id="5" value="main-view&lt;br&gt;padding-left: 54+20px;&lt;br&gt;padding-right: 60px;&lt;br&gt;z-index: 50;" style="rounded=0;whiteSpace=wrap;html=1;" vertex="1" parent="1">
                    <mxGeometry x="250" y="90" width="430" height="360" as="geometry"/>
                </mxCell>
                <mxCell id="6" value="nav-bar height: 54px; z-index: 100" style="rounded=0;whiteSpace=wrap;html=1;fillColor=#d80073;fontColor=#ffffff;strokeColor=#A50040;" vertex="1" parent="1">
                    <mxGeometry x="170" y="90" width="550" height="50" as="geometry"/>
                </mxCell>
            </root>
        </mxGraphModel>
    </diagram>
</mxfile>